<?xml version="1.0" encoding="utf-8"?>
<!-- Svg Vector Icons : http://www.onlinewebfonts.com/icon -->
<!DOCTYPE svg PUBLIC "-//W3C//DTD SVG 1.1//EN" "http://www.w3.org/Graphics/SVG/1.1/DTD/svg11.dtd">
<svg version="1.1" xmlns="http://www.w3.org/2000/svg" xmlns:xlink="http://www.w3.org/1999/xlink" x="0px" y="0px" viewBox="0 0 1000 1000" enable-background="new 0 0 1000 1000" xml:space="preserve" id="no-volume">
<metadata> Svg Vector Icons : http://www.onlinewebfonts.com/icon </metadata>
<g><g><g><g><path d="M517.9,10.2c-11.1-1-24.2,1.7-39.6,11c0,0-255.4,222.8-266.6,233.8H71.2C37.4,255,10,282.5,10,316.3v375.3c0,33.9,27.4,61.2,61.2,61.2h140.6c11.1,11.1,266.6,226,266.6,226c15.4,9.2,28.4,12,39.6,11c22.7-2.1,38.6-21.1,43.4-41.2c0.2-2,0.2-895.2-0.1-897.2C556.5,31.4,540.5,12.4,517.9,10.2z"/><path d="M873.3,500L979,394.3c14.6-14.6,14.6-38.3,0-52.9c-14.6-14.6-38.3-14.6-52.9,0L820.4,447.2L714.7,341.5c-14.5-14.6-38.3-14.6-52.8,0c-14.6,14.6-14.6,38.3,0,52.9L767.6,500L661.9,605.8c-14.6,14.5-14.6,38.3,0,52.8c14.5,14.6,38.3,14.6,52.8,0l105.8-105.7l105.7,105.7c14.6,14.6,38.3,14.6,52.9,0c14.6-14.5,14.6-38.3,0-52.8L873.3,500z"/></g></g></g><g></g><g></g><g></g><g></g><g></g><g></g><g></g><g></g><g></g><g></g><g></g><g></g><g></g><g></g><g></g></g>
</svg>