<?xml version="1.0" encoding="utf-8"?>
<!-- Svg Vector Icons : http://www.onlinewebfonts.com/icon -->
<!DOCTYPE svg PUBLIC "-//W3C//DTD SVG 1.1//EN" "http://www.w3.org/Graphics/SVG/1.1/DTD/svg11.dtd">
<svg version="1.1" xmlns="http://www.w3.org/2000/svg" xmlns:xlink="http://www.w3.org/1999/xlink" x="0px" y="0px" viewBox="0 0 1000 1000" enable-background="new 0 0 1000 1000" xml:space="preserve" id="pause">
<metadata> Svg Vector Icons : http://www.onlinewebfonts.com/icon </metadata>
<g><g transform="translate(0.000000,511.000000) scale(0.100000,-0.100000)"><path d="M2019.4,4974.8c-399.3-99.8-716.6-427.4-803.6-829.2c-20.5-97.3-28.2-1249-28.2-4056.6c0-4330.5-10.2-4079.7,161.2-4366.4c107.5-176.6,271.3-322.5,478.6-422.3l166.4-79.3h819h819l171.5,81.9c240.6,112.6,409.5,279,527.2,517l94.7,191.9V109.4v4095l-81.9,168.9c-156.1,312.2-396.7,517-711.5,598.9C3437.3,5020.8,2219,5023.4,2019.4,4974.8z M3363.1,109.4v-3826.3h-550.3h-550.3V109.4v3826.3h550.3h550.3V109.4z"/><path d="M6357.6,4969.7c-307.1-84.5-555.4-296.9-701.3-598.9l-79.3-166.4v-4095v-4095l79.3-168.9c140.8-294.3,353.2-486.3,650.1-586.1c151-51.2,202.2-53.7,931.6-46.1l770.4,7.7l171.5,81.9c192,89.6,383.9,266.2,488.8,445.3c153.6,261.1,148.4,46.1,140.8,4427.8l-7.7,4002.9l-92.1,192c-117.7,250.8-284.1,417.2-534.9,534.9l-192,92.1l-742.2,5.1C6646.8,5008.1,6470.2,5000.4,6357.6,4969.7z M7739.6,109.4v-3826.3h-550.3h-550.3V109.4v3826.3h550.3h550.3V109.4z"/></g></g>
</svg>