<?xml version="1.0" encoding="utf-8"?>
<!-- Svg Vector Icons : http://www.onlinewebfonts.com/icon -->
<!DOCTYPE svg PUBLIC "-//W3C//DTD SVG 1.1//EN" "http://www.w3.org/Graphics/SVG/1.1/DTD/svg11.dtd">
<svg version="1.1" xmlns="http://www.w3.org/2000/svg" xmlns:xlink="http://www.w3.org/1999/xlink" x="0px" y="0px" viewBox="0 0 1000 1000" enable-background="new 0 0 1000 1000" xml:space="preserve" id="play">
<metadata> Svg Vector Icons : http://www.onlinewebfonts.com/icon </metadata>
<g><path d="M862.4,389.5L250,35.9C219.5,18.3,190.7,10,165,10C102.1,10,58.6,60.1,58.6,146.4v707.1C58.6,939.9,102.1,990,165,990c25.7,0,54.5-8.3,85-25.9l612.4-353.6C967.7,549.7,967.7,450.3,862.4,389.5z M666.7,510.5L243.1,755.1l0,0l-57.6,33.3l57.6-54.3V281.4v-36.5v-66.5l18.2,77.1L684.9,500l0,0l57.6,33.3L666.7,510.5z"/></g>
</svg>