<?xml version="1.0" encoding="utf-8"?>
<!-- Svg Vector Icons : http://www.onlinewebfonts.com/icon -->
<!DOCTYPE svg PUBLIC "-//W3C//DTD SVG 1.1//EN" "http://www.w3.org/Graphics/SVG/1.1/DTD/svg11.dtd">
<svg version="1.1" xmlns="http://www.w3.org/2000/svg" xmlns:xlink="http://www.w3.org/1999/xlink" x="0px" y="0px" viewBox="0 0 1000 1000" enable-background="new 0 0 1000 1000" xml:space="preserve" id="stop">
<metadata> Svg Vector Icons : http://www.onlinewebfonts.com/icon </metadata>
<g><g transform="translate(0.000000,128.000000) scale(0.100000,-0.100000)"><path d="M360.1,916.1L100,656v-3832.8v-3832.8l221.9-244.8l221.9-252.4l3794.6-22.9c3297.3-15.3,3825.2-7.7,4024.1,99.4c474.3,244.8,466.6,191.3,443.7,4368.3l-22.9,3794.6l-252.4,221.8l-244.8,221.9H4453H620.2L360.1,916.1z M6434.4-1088.3c168.3-114.8,168.3-137.7,168.3-2088.5c0-1423-22.9-1989.1-91.8-2057.9c-68.8-68.9-635-91.8-2057.9-91.8c-1950.8,0-1973.8,0-2088.5,168.3c-99.5,145.3-122.4,466.6-122.4,2012c0,1889.6,22.9,2027.3,306,2126.8c61.2,23,925.7,45.9,1912.6,45.9C5975.4-965.9,6289.1-981.2,6434.4-1088.3z"/><path d="M9341.5-3796.5l-22.9-3825.1l-214.2-206.6l-206.6-214.2l-3825.1-22.9c-2149.7-7.7-3825.2-45.9-3825.2-84.2s107.1-160.6,237.2-267.8l237.2-198.9H5547h3825.1l260.1,260.1l267.8,267.8l-22.9,3855.7l-22.9,3863.4l-183.6,198.9C9563.4-63.2,9456.3,28.6,9425.7,28.6C9387.5,28.6,9349.2-1692.7,9341.5-3796.5z"/></g></g>
</svg>