<?xml version="1.0" encoding="utf-8"?>
<!-- Svg Vector Icons : http://www.onlinewebfonts.com/icon -->
<!DOCTYPE svg PUBLIC "-//W3C//DTD SVG 1.1//EN" "http://www.w3.org/Graphics/SVG/1.1/DTD/svg11.dtd">
<svg version="1.1" xmlns="http://www.w3.org/2000/svg" xmlns:xlink="http://www.w3.org/1999/xlink" x="0px" y="0px" viewBox="0 0 1000 1000" enable-background="new 0 0 1000 1000" xml:space="preserve" id="volume">
<metadata> Svg Vector Icons : http://www.onlinewebfonts.com/icon </metadata>
<g><g transform="translate(0.000000,512.000000) scale(0.100000,-0.100000)"><path d="M4753,4978.5c-111.2-44.1-65.2,0-1719.7-1585.5l-860.8-826.3h-504.2c-571.3,1.9-655.7-9.6-878.1-117c-325.9-157.2-544.5-416-655.7-776.4c-32.6-107.4-34.5-209-34.5-1552.9v-1437.9l44.1-143.8C261-1835.1,564-2147.6,934-2272.2c117-38.3,164.9-42.2,780.3-47.9l653.7-5.8l1012.3-1058.3c1299.8-1359.3,1244.2-1303.7,1376.5-1353.5c132.3-47.9,312.5-53.7,441-9.6c122.7,42.2,283.7,193.7,350.8,329.8l53.7,109.3V120.4V4549l-53.7,109.3c-67.1,136.1-228.1,287.6-350.8,329.7C5073.1,5030.2,4877.6,5026.4,4753,4978.5z"/><path d="M6668.2,4581.6c-115-44.1-260.7-180.2-324-299.1c-44.1-84.4-51.8-120.8-51.8-270.3c0-143.8,7.7-187.9,46-266.5c67.1-134.2,161-220.5,358.5-325.9c858.9-465.9,1487.7-1215.5,1788.7-2131.9c247.3-755.4,247.3-1579.7,0-2335.1C8200-1915.6,7607.6-2648,6813.9-3108.1c-320.2-185.9-356.6-212.8-417.9-301c-90.1-132.3-118.9-239.6-109.3-396.9c21.1-320.2,249.2-546.4,573.2-565.6c178.3-9.6,270.3,23,602,220.5c350.8,207.1,676.8,462,979.7,763c421.8,419.9,676.8,774.5,937.5,1303.7c504.2,1019.9,644.2,2116.5,412.2,3243.8c-256.9,1250-1019.9,2367.7-2108.9,3094.3c-136.1,92-331.7,207.1-433.3,258.8c-170.6,86.3-195.5,93.9-341.3,97.8C6798.6,4614.2,6727.6,4606.5,6668.2,4581.6z"/><path d="M6672,2327c-182.1-59.4-343.2-212.8-402.6-381.5c-44.1-132.3-42.2-324,7.7-437.1c21.1-47.9,88.2-149.5,147.6-226.2c272.2-354.7,396.8-718.9,396.8-1161.8c0-433.3-118.8-791.8-383.4-1140.7c-161-214.7-199.4-302.9-201.3-460.1c-1.9-249.2,128.4-462,348.9-569.4c147.6-72.9,366.2-74.8,511.9-5.8c228.2,109.3,559.8,575.1,743.9,1044.9c141.9,360.4,209,722.8,209,1131.1c0,651.8-174.5,1217.4-542.5,1754.2c-243.5,354.7-373.8,454.4-623.1,469.7C6802.4,2350,6721.9,2344.3,6672,2327z"/></g></g>
</svg>